<?xml version="1.0" standalone="no"?><!DOCTYPE svg PUBLIC "-//W3C//DTD SVG 1.1//EN" "http://www.w3.org/Graphics/SVG/1.1/DTD/svg11.dtd"><svg t="1588175737555" class="icon" viewBox="0 0 1024 1024" version="1.1" xmlns="http://www.w3.org/2000/svg" p-id="7812" xmlns:xlink="http://www.w3.org/1999/xlink" width="200" height="200"><defs><style type="text/css"></style></defs><path d="M511.873713 967.168C164.823046 967.168 88.791046 864.455111 87.226602 862.606222 119.141269 781.198222 195.543046 709.688889 238.010602 702.378667 288.158157 693.703111 340.609713 675.328 368.798157 660.536889L396.702157 645.859556C396.702157 645.859556 397.527046 610.076444 398.067491 587.150222 432.456824 611.072 471.08438 625.777778 512.129713 625.777778 552.919046 625.777778 591.319046 611.185778 625.537713 587.463111 625.96438 610.389333 626.590157 645.404444 626.590157 645.404444L654.551046 660.309333C682.369713 675.100444 734.991935 693.589333 785.765269 702.407111 828.20438 709.717333 904.606157 781.255111 936.833713 862.520889 934.984824 864.483556 858.92438 967.168 511.873713 967.168M512.129713 56.888889C644.879935 56.888889 711.46838 171.491556 711.46838 312.888889 711.46838 381.923556 679.46838 459.605333 630.373269 511.146667 614.757269 527.559111 597.377713 541.240889 578.746602 551.139556 578.689713 551.168 578.632824 551.224889 578.547491 551.253333 559.887935 561.152 539.919935 567.210667 519.127046 568.348444L519.183935 568.348444C516.823046 568.462222 514.519046 568.888889 512.129713 568.888889 509.882602 568.888889 507.720824 568.490667 505.502157 568.376889L505.502157 568.376889C489.971491 567.580444 474.895935 563.996444 460.446157 558.165333 460.303935 558.108444 460.161713 558.08 460.019491 557.994667 455.269269 556.060444 450.575935 553.870222 445.967935 551.452444 445.911046 551.424 445.825713 551.367111 445.74038 551.338667 427.080824 541.496889 409.672824 527.843556 394.02838 511.459556L394.02838 511.459556C344.847935 460.032 312.819491 382.321778 312.819491 312.888889 312.819491 171.491556 379.493269 56.888889 512.129713 56.888889M991.418602 842.496C950.259491 737.564444 852.183046 656.156444 796.062157 646.456889 749.271046 638.350222 703.475491 621.482667 682.824824 610.503111 682.824824 561.607111 682.142157 546.389333 681.971491 535.751111 734.707491 473.6 768.129713 388.949333 768.129713 312.888889 768.129713 140.088889 682.597269 0 512.129713 0 341.775935 0 256.129713 140.088889 256.129713 312.888889 256.129713 388.807111 289.096824 472.775111 341.207046 534.670222 341.29238 561.891556 341.349269 604.188444 340.808824 610.56 320.04438 621.454222 274.419491 638.350222 227.685269 646.428444 171.592824 656.128 73.487935 737.536 32.328824 842.439111 25.359935 860.273778 27.834602 879.616 39.183935 895.488 81.423935 954.680889 332.531491 1024 511.873713 1024 691.215935 1024 942.351935 954.680889 984.591935 895.516444 995.912824 879.644444 998.387491 860.302222 991.418602 842.496" p-id="7813" fill="#d81e06"></path></svg>